<?xml version="1.0" standalone="no"?>
<!DOCTYPE svg PUBLIC "-//W3C//DTD SVG 20010904//EN"
 "http://www.w3.org/TR/2001/REC-SVG-20010904/DTD/svg10.dtd">
<svg version="1.0" xmlns="http://www.w3.org/2000/svg"
 width="128.000000pt" height="128.000000pt" viewBox="0 0 128.000000 128.000000"
 preserveAspectRatio="xMidYMid meet">
<metadata>
Created by potrace 1.11, written by Peter Selinger 2001-2013
</metadata>
<g transform="translate(0.000000,128.000000) scale(0.100000,-0.100000)"
fill="#000000" stroke="none">
<path d="M58 1187 c-48 -17 -47 -11 -48 -548 0 -495 0 -506 20 -527 12 -12 31
-23 43 -23 125 -7 1136 -3 1152 4 45 22 44 17 45 548 0 495 0 506 -20 527 -12
12 -26 23 -33 23 -58 6 -1143 2 -1159 -4z m991 -75 c20 -39 -21 -78 -65 -61
-33 12 -37 47 -8 75 19 20 28 23 44 14 11 -6 24 -18 29 -28z m140 1 c21 -38
-30 -84 -69 -63 -25 13 -31 36 -18 65 17 39 64 38 87 -2z m-293 19 c34 -22 19
-80 -21 -86 -42 -7 -73 52 -43 82 13 13 47 16 64 4z m279 -142 c20 0 20 -7 20
-412 l-1 -413 -554 0 -555 0 0 405 c0 223 2 410 6 415 6 8 803 12 1084 5z"/>
<path d="M661 792 c-6 -11 -12 -30 -15 -43 -2 -13 -21 -89 -40 -168 -20 -80
-36 -153 -36 -162 0 -22 26 -32 42 -15 17 16 102 371 94 391 -8 21 -33 19 -45
-3z"/>
<path d="M395 691 l-130 -57 0 -34 c0 -34 0 -34 130 -92 72 -32 133 -58 136
-58 7 0 9 28 3 57 -3 16 -24 29 -89 55 -47 18 -85 36 -85 39 0 3 40 21 88 39
87 32 89 34 90 66 1 18 -2 35 -6 38 -4 2 -65 -22 -137 -53z"/>
<path d="M746 718 c1 -18 2 -36 3 -40 0 -3 39 -21 86 -40 47 -18 85 -36 85
-39 0 -3 -39 -21 -87 -40 l-87 -34 -1 -37 c-1 -21 1 -38 4 -38 3 0 65 26 136
58 l130 58 0 34 0 34 -130 58 c-71 31 -133 57 -136 57 -3 1 -4 -14 -3 -31z"/>
</g>
</svg>
